<svg width="159" height="165" viewBox="0 0 159 165" fill="none" xmlns="http://www.w3.org/2000/svg">
<g opacity="0.3">
<path d="M79.6663 68.6663L46.3331 2H13L50.5481 80.8512M79.6663 68.6663L112.999 2H146.333L108.784 80.8512M79.6663 68.6663C90.8662 68.6663 101.206 73.3621 108.784 80.8512ZM79.6663 68.6663C68.4663 68.6663 58.1262 73.3621 50.5481 80.8512ZM108.784 80.8512C116.484 88.4603 121.333 98.9527 121.333 110.333C121.333 133.344 102.678 151.999 79.6663 151.999C56.6546 151.999 37.9998 133.344 37.9998 110.333C37.9998 98.9527 42.8481 88.4603 50.5481 80.8512" fill="#6D6240"/>
<path d="M79.6663 68.6663L46.3331 2H13L50.5481 80.8512M79.6663 68.6663L112.999 2H146.333L108.784 80.8512M79.6663 68.6663C90.8662 68.6663 101.206 73.3621 108.784 80.8512M79.6663 68.6663C68.4663 68.6663 58.1262 73.3621 50.5481 80.8512M50.5481 80.8512C42.8481 88.4603 37.9998 98.9527 37.9998 110.333C37.9998 133.344 56.6546 151.999 79.6663 151.999C102.678 151.999 121.333 133.344 121.333 110.333C121.333 98.9527 116.484 88.4603 108.784 80.8512" stroke="black" stroke-opacity="0.69" stroke-width="25" stroke-linejoin="round"/>
</g>
</svg>
