<svg width="159" height="163" viewBox="0 0 159 163" fill="none" xmlns="http://www.w3.org/2000/svg">
<g opacity="0.3">
<path d="M79.6663 66.6663L46.3331 0H13L50.5481 78.8512M79.6663 66.6663L112.999 0H146.333L108.784 78.8512M79.6663 66.6663C90.8662 66.6663 101.206 71.3621 108.784 78.8512ZM79.6663 66.6663C68.4663 66.6663 58.1262 71.3621 50.5481 78.8512ZM108.784 78.8512C116.484 86.4603 121.333 96.9527 121.333 108.333C121.333 131.344 102.678 149.999 79.6663 149.999C56.6546 149.999 37.9998 131.344 37.9998 108.333C37.9998 96.9527 42.8481 86.4603 50.5481 78.8512" fill="#FFD700"/>
<path d="M79.6663 66.6663L46.3331 0H13L50.5481 78.8512M79.6663 66.6663L112.999 0H146.333L108.784 78.8512M79.6663 66.6663C90.8662 66.6663 101.206 71.3621 108.784 78.8512M79.6663 66.6663C68.4663 66.6663 58.1262 71.3621 50.5481 78.8512M50.5481 78.8512C42.8481 86.4603 37.9998 96.9527 37.9998 108.333C37.9998 131.344 56.6546 149.999 79.6663 149.999C102.678 149.999 121.333 131.344 121.333 108.333C121.333 96.9527 116.484 86.4603 108.784 78.8512" stroke="black" stroke-opacity="0.69" stroke-width="25" stroke-linejoin="round"/>
</g>
</svg>
