<svg width="36" height="36" viewBox="0 0 36 36" fill="none" xmlns="http://www.w3.org/2000/svg">
<rect width="36" height="36" rx="18" fill="#9FA9FF"/>
<path d="M16 24.5C16 24.8978 15.842 25.2794 15.5607 25.5607C15.2794 25.842 14.8978 26 14.5 26C14.1022 26 13.7206 25.842 13.4393 25.5607C13.158 25.2794 13 24.8978 13 24.5C13 24.1022 13.158 23.7206 13.4393 23.4393C13.7206 23.158 14.1022 23 14.5 23C14.8978 23 15.2794 23.158 15.5607 23.4393C15.842 23.7206 16 24.1022 16 24.5ZM23 24.5C23 24.8978 22.842 25.2794 22.5607 25.5607C22.2794 25.842 21.8978 26 21.5 26C21.1022 26 20.7206 25.842 20.4393 25.5607C20.158 25.2794 20 24.8978 20 24.5C20 24.1022 20.158 23.7206 20.4393 23.4393C20.7206 23.158 21.1022 23 21.5 23C21.8978 23 22.2794 23.158 22.5607 23.4393C22.842 23.7206 23 24.1022 23 24.5Z" fill="#4751AD"/>
<path d="M11 12C10.7348 12 10.4804 12.1054 10.2929 12.2929C10.1054 12.4804 10 12.7348 10 13V23C10 23.2652 10.1054 23.5196 10.2929 23.7071C10.4804 23.8946 10.7348 24 11 24H12.05C12.1648 23.4349 12.4714 22.9268 12.9179 22.5618C13.3644 22.1969 13.9233 21.9975 14.5 21.9975C15.0767 21.9975 15.6356 22.1969 16.0821 22.5618C16.5286 22.9268 16.8352 23.4349 16.95 24H18C18.2652 24 18.5196 23.8946 18.7071 23.7071C18.8946 23.5196 19 23.2652 19 23V13C19 12.7348 18.8946 12.4804 18.7071 12.2929C18.5196 12.1054 18.2652 12 18 12H11ZM22 15C21.7348 15 21.4804 15.1054 21.2929 15.2929C21.1054 15.4804 21 15.7348 21 16V22.05C21.3217 21.9843 21.6533 21.9826 21.9757 22.045C22.2981 22.1074 22.605 22.2328 22.879 22.4139C23.1529 22.5949 23.3885 22.8282 23.5723 23.1004C23.756 23.3725 23.8844 23.6782 23.95 24H25C25.2652 24 25.5196 23.8946 25.7071 23.7071C25.8946 23.5196 26 23.2652 26 23V18C25.9999 17.7348 25.8946 17.4805 25.707 17.293L23.707 15.293C23.5195 15.1055 23.2652 15.0001 23 15H22Z" fill="#4751AD"/>
</svg>
