<svg width="32" height="32" viewBox="0 0 32 32" fill="none" xmlns="http://www.w3.org/2000/svg">
<rect width="32" height="32" rx="16" fill="#BFFAD0"/>
<g clip-path="url(#clip0_1_272)">
<path fill-rule="evenodd" clip-rule="evenodd" d="M12.267 9.455C12.9103 9.40364 13.5209 9.15063 14.012 8.732C14.5667 8.25959 15.2714 8.00014 16 8.00014C16.7286 8.00014 17.4333 8.25959 17.988 8.732C18.4791 9.15063 19.0898 9.40364 19.733 9.455C20.4594 9.51306 21.1414 9.82796 21.6567 10.3433C22.172 10.8586 22.487 11.5406 22.545 12.267C22.596 12.91 22.849 13.521 23.268 14.012C23.7404 14.5667 23.9999 15.2714 23.9999 16C23.9999 16.7286 23.7404 17.4333 23.268 17.988C22.8494 18.4791 22.5964 19.0897 22.545 19.733C22.487 20.4594 22.172 21.1414 21.6567 21.6567C21.1414 22.172 20.4594 22.4869 19.733 22.545C19.0898 22.5964 18.4791 22.8494 17.988 23.268C17.4333 23.7404 16.7286 23.9999 16 23.9999C15.2714 23.9999 14.5667 23.7404 14.012 23.268C13.5209 22.8494 12.9103 22.5964 12.267 22.545C11.5406 22.4869 10.8586 22.172 10.3433 21.6567C9.82798 21.1414 9.51307 20.4594 9.45501 19.733C9.40365 19.0897 9.15064 18.4791 8.73201 17.988C8.2596 17.4333 8.00015 16.7286 8.00015 16C8.00015 15.2714 8.2596 14.5667 8.73201 14.012C9.15064 13.5209 9.40365 12.9103 9.45501 12.267C9.51307 11.5406 9.82798 10.8586 10.3433 10.3433C10.8586 9.82796 11.5406 9.51306 12.267 9.455ZM19.707 14.707C19.8892 14.5184 19.99 14.2658 19.9877 14.0036C19.9854 13.7414 19.8802 13.4906 19.6948 13.3052C19.5094 13.1198 19.2586 13.0146 18.9964 13.0123C18.7342 13.01 18.4816 13.1108 18.293 13.293L15 16.586L13.707 15.293C13.5184 15.1108 13.2658 15.01 13.0036 15.0123C12.7414 15.0146 12.4906 15.1198 12.3052 15.3052C12.1198 15.4906 12.0146 15.7414 12.0123 16.0036C12.0101 16.2658 12.1109 16.5184 12.293 16.707L14.293 18.707C14.4805 18.8945 14.7348 18.9998 15 18.9998C15.2652 18.9998 15.5195 18.8945 15.707 18.707L19.707 14.707Z" fill="#4ECB71"/>
</g>
<defs>
<clipPath id="clip0_1_272">
<rect width="16" height="16" fill="white" transform="translate(8 8)"/>
</clipPath>
</defs>
</svg>
