<svg width="16" height="16" viewBox="0 0 16 16" fill="none" xmlns="http://www.w3.org/2000/svg">
<g clip-path="url(#clip0_1_273)">
<path fill-rule="evenodd" clip-rule="evenodd" d="M4.267 1.455C4.91026 1.40364 5.52091 1.15063 6.012 0.732001C6.56666 0.259592 7.27142 0.000141144 8 0.000141144C8.72857 0.000141144 9.43333 0.259592 9.988 0.732001C10.4791 1.15063 11.0897 1.40364 11.733 1.455C12.4594 1.51306 13.1414 1.82796 13.6567 2.34327C14.172 2.85857 14.4869 3.54057 14.545 4.267C14.596 4.91 14.849 5.521 15.268 6.012C15.7404 6.56666 15.9999 7.27143 15.9999 8C15.9999 8.72857 15.7404 9.43334 15.268 9.988C14.8494 10.4791 14.5964 11.0897 14.545 11.733C14.4869 12.4594 14.172 13.1414 13.6567 13.6567C13.1414 14.172 12.4594 14.4869 11.733 14.545C11.0897 14.5964 10.4791 14.8494 9.988 15.268C9.43333 15.7404 8.72857 15.9999 8 15.9999C7.27142 15.9999 6.56666 15.7404 6.012 15.268C5.52091 14.8494 4.91026 14.5964 4.267 14.545C3.54057 14.4869 2.85856 14.172 2.34326 13.6567C1.82796 13.1414 1.51305 12.4594 1.455 11.733C1.40364 11.0897 1.15063 10.4791 0.731997 9.988C0.259588 9.43334 0.000137329 8.72857 0.000137329 8C0.000137329 7.27143 0.259588 6.56666 0.731997 6.012C1.15063 5.52091 1.40364 4.91026 1.455 4.267C1.51305 3.54057 1.82796 2.85857 2.34326 2.34327C2.85856 1.82796 3.54057 1.51306 4.267 1.455ZM11.707 6.707C11.8892 6.5184 11.9899 6.2658 11.9877 6.0036C11.9854 5.7414 11.8802 5.49059 11.6948 5.30518C11.5094 5.11977 11.2586 5.0146 10.9964 5.01233C10.7342 5.01005 10.4816 5.11084 10.293 5.293L7 8.586L5.707 7.293C5.51839 7.11084 5.26579 7.01005 5.0036 7.01233C4.7414 7.01461 4.49059 7.11977 4.30518 7.30518C4.11977 7.49059 4.0146 7.7414 4.01232 8.0036C4.01004 8.2658 4.11084 8.5184 4.293 8.707L6.293 10.707C6.48053 10.8945 6.73483 10.9998 7 10.9998C7.26516 10.9998 7.51947 10.8945 7.707 10.707L11.707 6.707Z" fill="#4ECB71"/>
</g>
<defs>
<clipPath id="clip0_1_273">
<rect width="16" height="16" fill="white"/>
</clipPath>
</defs>
</svg>
