<svg width="21" height="21" viewBox="0 0 21 21" fill="none" xmlns="http://www.w3.org/2000/svg">
<path fill-rule="evenodd" clip-rule="evenodd" d="M18.7522 10.6392C18.7522 12.7609 17.9093 14.7957 16.4091 16.296C14.9088 17.7963 12.8739 18.6392 10.7522 18.6392C8.63047 18.6392 6.59563 17.7963 5.09534 16.296C3.59505 14.7957 2.7522 12.7609 2.7522 10.6392C2.7522 8.51743 3.59505 6.4826 5.09534 4.98231C6.59563 3.48202 8.63047 2.63916 10.7522 2.63916C12.8739 2.63916 14.9088 3.48202 16.4091 4.98231C17.9093 6.4826 18.7522 8.51743 18.7522 10.6392ZM11.7522 6.63916C11.7522 6.90438 11.6468 7.15873 11.4593 7.34627C11.2718 7.5338 11.0174 7.63916 10.7522 7.63916C10.487 7.63916 10.2326 7.5338 10.0451 7.34627C9.85755 7.15873 9.7522 6.90438 9.7522 6.63916C9.7522 6.37394 9.85755 6.11959 10.0451 5.93205C10.2326 5.74452 10.487 5.63916 10.7522 5.63916C11.0174 5.63916 11.2718 5.74452 11.4593 5.93205C11.6468 6.11959 11.7522 6.37394 11.7522 6.63916ZM9.7522 9.63916C9.48698 9.63916 9.23263 9.74452 9.04509 9.93205C8.85755 10.1196 8.7522 10.3739 8.7522 10.6392C8.7522 10.9044 8.85755 11.1587 9.04509 11.3463C9.23263 11.5338 9.48698 11.6392 9.7522 11.6392V14.6392C9.7522 14.9044 9.85755 15.1587 10.0451 15.3463C10.2326 15.5338 10.487 15.6392 10.7522 15.6392H11.7522C12.0174 15.6392 12.2718 15.5338 12.4593 15.3463C12.6468 15.1587 12.7522 14.9044 12.7522 14.6392C12.7522 14.3739 12.6468 14.1196 12.4593 13.9321C12.2718 13.7445 12.0174 13.6392 11.7522 13.6392V10.6392C11.7522 10.3739 11.6468 10.1196 11.4593 9.93205C11.2718 9.74452 11.0174 9.63916 10.7522 9.63916H9.7522Z" fill="#AD6547"/>
</svg>
