<svg width="21" height="21" viewBox="0 0 21 21" fill="none" xmlns="http://www.w3.org/2000/svg">
<path d="M8.11005 17.4175C8.11005 17.8153 7.95201 18.1968 7.67071 18.4781C7.3894 18.7594 7.00787 18.9175 6.61005 18.9175C6.21222 18.9175 5.83069 18.7594 5.54939 18.4781C5.26808 18.1968 5.11005 17.8153 5.11005 17.4175C5.11005 17.0197 5.26808 16.6381 5.54939 16.3568C5.83069 16.0755 6.21222 15.9175 6.61005 15.9175C7.00787 15.9175 7.3894 16.0755 7.67071 16.3568C7.95201 16.6381 8.11005 17.0197 8.11005 17.4175ZM15.11 17.4175C15.11 17.8153 14.952 18.1968 14.6707 18.4781C14.3894 18.7594 14.0079 18.9175 13.61 18.9175C13.2122 18.9175 12.8307 18.7594 12.5494 18.4781C12.2681 18.1968 12.11 17.8153 12.11 17.4175C12.11 17.0197 12.2681 16.6381 12.5494 16.3568C12.8307 16.0755 13.2122 15.9175 13.61 15.9175C14.0079 15.9175 14.3894 16.0755 14.6707 16.3568C14.952 16.6381 15.11 17.0197 15.11 17.4175Z" fill="#4751AD"/>
<path d="M3.11005 4.91748C2.84483 4.91748 2.59048 5.02284 2.40294 5.21037C2.2154 5.39791 2.11005 5.65226 2.11005 5.91748V15.9175C2.11005 16.1827 2.2154 16.4371 2.40294 16.6246C2.59048 16.8121 2.84483 16.9175 3.11005 16.9175H4.16005C4.2748 16.3523 4.58141 15.8442 5.02792 15.4793C5.47442 15.1143 6.03337 14.915 6.61005 14.915C7.18672 14.915 7.74567 15.1143 8.19218 15.4793C8.63868 15.8442 8.94529 16.3523 9.06005 16.9175H10.11C10.3753 16.9175 10.6296 16.8121 10.8172 16.6246C11.0047 16.4371 11.11 16.1827 11.11 15.9175V5.91748C11.11 5.65226 11.0047 5.39791 10.8172 5.21037C10.6296 5.02284 10.3753 4.91748 10.11 4.91748H3.11005ZM14.11 7.91748C13.8448 7.91748 13.5905 8.02284 13.4029 8.21037C13.2154 8.39791 13.11 8.65226 13.11 8.91748V14.9675C13.4318 14.9018 13.7633 14.9001 14.0857 14.9625C14.4081 15.0249 14.7151 15.1503 14.989 15.3313C15.263 15.5124 15.4986 15.7457 15.6823 16.0179C15.8661 16.29 15.9944 16.5957 16.06 16.9175H17.11C17.3753 16.9175 17.6296 16.8121 17.8172 16.6246C18.0047 16.4371 18.11 16.1827 18.11 15.9175V10.9175C18.11 10.6523 18.0046 10.398 17.817 10.2105L15.817 8.21048C15.6296 8.02293 15.3752 7.91754 15.11 7.91748H14.11Z" fill="#4751AD"/>
</svg>
