<svg width="32" height="32" viewBox="0 0 32 32" fill="none" xmlns="http://www.w3.org/2000/svg">
<rect width="32" height="32" rx="16" fill="#A9D2FA"/>
<path fill-rule="evenodd" clip-rule="evenodd" d="M16 25.6C18.5461 25.6 20.9879 24.5886 22.7882 22.7882C24.5886 20.9879 25.6 18.5461 25.6 16C25.6 13.4539 24.5886 11.0121 22.7882 9.21178C20.9879 7.41143 18.5461 6.4 16 6.4C13.4539 6.4 11.0121 7.41143 9.21177 9.21178C7.41143 11.0121 6.4 13.4539 6.4 16C6.4 18.5461 7.41143 20.9879 9.21177 22.7882C11.0121 24.5886 13.4539 25.6 16 25.6V25.6ZM17.2 11.2C17.2 10.8817 17.0736 10.5765 16.8485 10.3515C16.6235 10.1264 16.3183 10 16 10C15.6817 10 15.3765 10.1264 15.1515 10.3515C14.9264 10.5765 14.8 10.8817 14.8 11.2V16C14.8001 16.3182 14.9265 16.6234 15.1516 16.8484L18.5452 20.2432C18.6567 20.3547 18.7891 20.4431 18.9347 20.5035C19.0804 20.5638 19.2365 20.5949 19.3942 20.5949C19.5519 20.5949 19.708 20.5638 19.8537 20.5035C19.9993 20.4431 20.1317 20.3547 20.2432 20.2432C20.3547 20.1317 20.4431 19.9993 20.5035 19.8537C20.5638 19.708 20.5949 19.5519 20.5949 19.3942C20.5949 19.2365 20.5638 19.0804 20.5035 18.9347C20.4431 18.7891 20.3547 18.6567 20.2432 18.5452L17.2 15.5032V11.2Z" fill="#3792E5"/>
</svg>
